{
  "title": "The Hours [2002] 720p BRRip x264 [VX] [P2PDL]",
  "uid": 7666997,
  "size": 783038547,
  "categoryP": "video",
  "categoryS": "hd___movies",
  "magnet": "?xt=urn:btih:09c2fc2868b7728d24568d240f14610c66cf3ef3&amp;dn=The+Hours+%5B2002%5D+720p+BRRip+x264+%5BVX%5D+%5BP2PDL%5D&amp;tr=udp%3A%2F%2Ftracker.openbittorrent.com%3A80&amp;tr=udp%3A%2F%2Fopen.demonii.com%3A1337&amp;tr=udp%3A%2F%2Ftracker.coppersurfer.tk%3A6969&amp;tr=udp%3A%2F%2Fexodus.desync.com%3A6969",
  "seeders": 134,
  "leechers": 28,
  "uploader": "Vitamin_X",
  "files": -1,
  "time": 1348472201,
  "description": "Cover: http://www.shotpix.com/images/16035878589338004344.jpg\n\n\nRelease Title: The Hours (2002)\n\n\t\t\t\t\t\nGenre: Drama\nIMDb Rating: 7.5/10 http://www.imdb.com/title/tt0274558/\n\n\nPlot: The story of how the novel &quot;Mrs. Dalloway&quot; affects three generations of women, all of whom, in one way or another, have had to deal with suicide in their lives.\n\n\nDirector: Stephen Daldry\n\n\nStars: Meryl Streep, Nicole Kidman and Julianne Moore.\n\nDetails:\n\nGeneral\n\nFormat                         : MPEG-4\nFormat profile                 : Base Media / Version 2\nCodec ID                       : mp42\nFile size                      : 743 MiB\nDuration                       : 1h 49mn\nOverall bit rate mode          : Variable\nOverall bit rate               : 944 Kbps\nSource                         : The Hours [2002] 720p BRRip XviD AC3 - CODY (Thanks!)\n\n\nVideo\nID                             : 1\nFormat                         : AVC\nFormat/Info                    : Advanced Video Codec\nFormat profile                 : &lt;a class=&quot;__cf_email__&quot; href=&quot;/cdn-cgi/l/email-protection&quot; data-cfemail=&quot;3b73525c537b770f150a&quot;&gt;[email&amp;#160;protected]&lt;/a&gt;&lt;script cf-hash='f9e31' type=&quot;text/javascript&quot;&gt;\n/* &lt;![CDATA[ */!function(){try{var t=&quot;currentScript&quot;in document?document.currentScript:function(){for(var t=document.getElementsByTagName(&quot;script&quot;),e=t.length;e--;)if(t[e].getAttribute(&quot;cf-hash&quot;))return t[e]}();if(t&amp;&amp;t.previousSibling){var e,r,n,i,c=t.previousSibling,a=c.getAttribute(&quot;data-cfemail&quot;);if(a){for(e=&quot;&quot;,r=parseInt(a.substr(0,2),16),n=2;a.length-n;n+=2)i=parseInt(a.substr(n,2),16)^r,e+=String.fromCharCode(i);e=document.createTextNode(e),c.parentNode.replaceChild(e,c)}}}catch(u){}}();/* ]]&gt; */&lt;/script&gt;\nFormat settings, CABAC         : Yes\nFormat settings, ReFrames      : 4 frames\nCodec ID                       : avc1\nCodec ID/Info                  : Advanced Video Coding\nDuration                       : 1h 49mn\nBit rate mode                  : Variable\nBit rate                       : 812 Kbps\nMaximum bit rate               : 50.0 Mbps\nWidth                          : 1 280 pixels\nHeight                         : 688 pixels\nDisplay aspect ratio           : 1.860\nFrame rate mode                : Constant\nFrame rate                     : 25.000 fps\nColor space                    : YUV\nChroma subsampling             : 4:2:0\nBit depth                      : 8 bits\nScan type                      : Progressive\nBits/(Pixel*Frame)             : 0.037\nStream size                    : 638 MiB (86%)\nForced                         : No\n\n\n[code]Audio\nID                             : 2\nFormat                         : AAC\nFormat/Info                    : Advanced Audio Codec\nFormat profile                 : LC\nCodec ID                       : 40\nDuration                       : 1h 49mn\nBit rate mode                  : Variable\nBit rate                       : 128 Kbps\nMaximum bit rate               : 159 Kbps\nChannel(s)                     : 2 channels\nChannel positions              : Front: L R\nSampling rate                  : 48.0 KHz\nStream size                    : 101 MiB (14%)\nForced                         : No\n\nSubtitles                      : Yes (English)\n\n\n\n\nScreens:\n\n &lt;a href=&quot;\nhttp://www.shotpix.com/images/92505019797759598837.jpg&quot; rel=&quot;nofollow&quot; target=&quot;_NEW&quot;&gt;\nhttp://www.shotpix.com/images/92505019797759598837.jpg&lt;/a&gt; &lt;a href=&quot;\nhttp://www.shotpix.com/images/35478284042352810098.jpg&quot; rel=&quot;nofollow&quot; target=&quot;_NEW&quot;&gt;\nhttp://www.shotpix.com/images/35478284042352810098.jpg&lt;/a&gt; &lt;a href=&quot;\nhttp://www.shotpix.com/images/30882364998009732590.jpg&quot; rel=&quot;nofollow&quot; target=&quot;_NEW&quot;&gt;\nhttp://www.shotpix.com/images/30882364998009732590.jpg&lt;/a&gt; &lt;a href=&quot;\nhttp://www.shotpix.com/images/72797380343804062983.jpg&quot; rel=&quot;nofollow&quot; target=&quot;_NEW&quot;&gt;\nhttp://www.shotpix.com/images/72797380343804062983.jpg&lt;/a&gt;\n\nThumbs:\n &lt;a href=&quot;\nhttp://www.shotpix.com/images/92095428258076057112.jpg&quot; rel=&quot;nofollow&quot; target=&quot;_NEW&quot;&gt;\nhttp://www.shotpix.com/images/92095428258076057112.jpg&lt;/a&gt;\n\n\n\n\n\n\n------------------------------------------------------------------------\n\n\nCheck sample to be sure, Use VLC Player or Shark007 codec pack.\nSeed as much as you can.\n\n\nGreets to: srkfan, VYTO, MgB, staff members at ExtraTorrent, TPB,KAT, 1337x, PublicHD, Ahashare,\nSilverTorrent, TorrentMafia, P2PDL, and all others\n\n\nEncoder Notes: Looking For Early Access To Anything You Can Provide DVDScr, R5, DVDRips, BluRay, Direct Audio, Early Music\nReleases, Seedboxes, Links, Dedicated Servers anything u can provide, Advance / Promo CDs/DVDs. If You Got anything to\noffer contact me at &quot;&lt;a class=&quot;__cf_email__&quot; href=&quot;/cdn-cgi/l/email-protection&quot; data-cfemail=&quot;52313d3c2633312612263b3c2b3f7c3727&quot;&gt;[email&amp;#160;protected]&lt;/a&gt;&lt;script cf-hash='f9e31' type=&quot;text/javascript&quot;&gt;\n/* &lt;![CDATA[ */!function(){try{var t=&quot;currentScript&quot;in document?document.currentScript:function(){for(var t=document.getElementsByTagName(&quot;script&quot;),e=t.length;e--;)if(t[e].getAttribute(&quot;cf-hash&quot;))return t[e]}();if(t&amp;&amp;t.previousSibling){var e,r,n,i,c=t.previousSibling,a=c.getAttribute(&quot;data-cfemail&quot;);if(a){for(e=&quot;&quot;,r=parseInt(a.substr(0,2),16),n=2;a.length-n;n+=2)i=parseInt(a.substr(n,2),16)^r,e+=String.fromCharCode(i);e=document.createTextNode(e),c.parentNode.replaceChild(e,c)}}}catch(u){}}();/* ]]&gt; */&lt;/script&gt;&quot;\n\n                                    Enjoy!",
  "parsed": {
    "xt": "urn:btih:09c2fc2868b7728d24568d240f14610c66cf3ef3",
    "dn": "The Hours [2002] 720p BRRip x264 [VX] [P2PDL]",
    "tr": [
      "udp://exodus.desync.com:6969",
      "udp://open.demonii.com:1337",
      "udp://tracker.coppersurfer.tk:6969",
      "udp://tracker.openbittorrent.com:80"
    ],
    "infoHash": "09c2fc2868b7728d24568d240f14610c66cf3ef3",
    "infoHashBuffer": {
      "type": "Buffer",
      "data": [
        9,
        194,
        252,
        40,
        104,
        183,
        114,
        141,
        36,
        86,
        141,
        36,
        15,
        20,
        97,
        12,
        102,
        207,
        62,
        243
      ]
    },
    "name": "The Hours [2002] 720p BRRip x264 [VX] [P2PDL]",
    "announce": [
      "udp://exodus.desync.com:6969",
      "udp://open.demonii.com:1337",
      "udp://tracker.coppersurfer.tk:6969",
      "udp://tracker.openbittorrent.com:80"
    ],
    "urlList": []
  },
  "previous": 50,
  "peers": 0,
  "last_updated": "2016-12-26T15:39:24.781Z"
}